<svg width="137" height="43" viewBox="0 0 137 43" fill="none" xmlns="http://www.w3.org/2000/svg">
<path d="M0 2.86816C1.11328 3.09082 2.05957 3.25781 2.83887 3.36914C3.61816 3.48047 4.26758 3.57324 4.78711 3.64746C5.38086 3.72168 5.88184 3.75879 6.29004 3.75879C6.69824 3.75879 7.25488 3.74023 7.95996 3.70312C8.59082 3.66602 9.38867 3.64746 10.3535 3.64746C11.3184 3.61035 12.543 3.55469 14.0273 3.48047C13.1738 4.07422 12.4873 4.5752 11.9678 4.9834C11.4482 5.3916 11.0586 5.74414 10.7988 6.04102C10.4648 6.375 10.2607 6.65332 10.1865 6.87598C10.1123 7.02441 10.0381 7.58105 9.96387 8.5459C9.88965 9.47363 9.81543 10.6611 9.74121 12.1084C9.7041 13.5186 9.7041 15.1143 9.74121 16.8955C9.77832 18.6396 9.87109 20.4209 10.0195 22.2393C10.2051 24.0576 10.4648 25.8203 10.7988 27.5273C11.1328 29.1973 11.5781 30.6631 12.1348 31.9248C12.7285 33.1865 13.4336 34.1699 14.25 34.875C15.1035 35.5801 16.124 35.8398 17.3115 35.6543C18.8701 35.4316 20.1318 34.6709 21.0967 33.3721C22.0615 32.0732 22.7852 30.4961 23.2676 28.6406C23.7871 26.7852 24.1025 24.7998 24.2139 22.6846C24.3623 20.5322 24.3809 18.5283 24.2695 16.6729C24.1953 14.7803 24.0469 13.1475 23.8242 11.7744C23.6016 10.4014 23.3975 9.54785 23.2119 9.21387C22.9893 8.84277 22.6924 8.41602 22.3213 7.93359C22.0244 7.52539 21.6348 7.06152 21.1523 6.54199C20.6699 5.98535 20.1133 5.3916 19.4824 4.76074C20.6328 4.79785 21.6719 4.83496 22.5996 4.87207C23.5273 4.87207 24.3066 4.89063 24.9375 4.92773C25.6797 4.96484 26.3477 5.00195 26.9414 5.03906C27.5352 5.07617 28.2773 5.13184 29.168 5.20605C29.9102 5.28027 30.8564 5.35449 32.0068 5.42871C33.1943 5.50293 34.6045 5.61426 36.2373 5.7627C35.6064 5.91113 35.0869 6.11523 34.6787 6.375C34.3076 6.63477 34.0107 6.91309 33.7881 7.20996C33.5283 7.54395 33.3428 7.87793 33.2314 8.21191C33.1201 8.50879 33.0273 9.39941 32.9531 10.8838C32.916 12.3311 32.8418 14.0938 32.7305 16.1719C32.6562 18.2129 32.5264 20.4395 32.3408 22.8516C32.1553 25.2266 31.8584 27.4902 31.4502 29.6426C31.0791 31.7949 30.5781 33.7061 29.9473 35.376C29.3535 37.0459 28.5742 38.1963 27.6094 38.8271C26.1992 39.7549 24.7148 40.4229 23.1562 40.8311C21.5977 41.2021 20.0205 41.4062 18.4248 41.4434C16.8291 41.4434 15.252 41.3135 13.6934 41.0537C12.1719 40.7568 10.7061 40.4043 9.2959 39.9961C7.84863 39.5508 6.64258 38.5488 5.67773 36.9902C4.75 35.4316 4.00781 33.5947 3.45117 31.4795C2.93164 29.3271 2.54199 27.0264 2.28223 24.5771C2.05957 22.0908 1.91113 19.6973 1.83691 17.3965C1.7998 15.0957 1.7998 13.0176 1.83691 11.1621C1.91113 9.26953 1.9668 7.84082 2.00391 6.87598C2.00391 6.39355 1.92969 5.92969 1.78125 5.48438C1.66992 5.07617 1.46582 4.64941 1.16895 4.2041C0.90918 3.72168 0.519531 3.27637 0 2.86816ZM33.3428 1.36523C34.5303 1.55078 35.6064 1.71777 36.5713 1.86621C37.5361 1.97754 38.3711 2.07031 39.0762 2.14453C39.8926 2.25586 40.6162 2.34863 41.2471 2.42285C42.0264 2.53418 43.1953 2.4043 44.7539 2.0332C46.3125 1.625 48.0195 1.25391 49.875 0.919922C51.7676 0.548828 53.6973 0.344727 55.6641 0.307617C57.6309 0.233398 59.4307 0.585938 61.0635 1.36523C62.6963 2.14453 64.0322 2.92383 65.0713 3.70312C66.1104 4.48242 66.9268 5.31738 67.5205 6.20801C68.1514 7.06152 68.5967 7.9707 68.8564 8.93555C69.1162 9.90039 69.2646 10.958 69.3018 12.1084C69.2646 13.8154 68.8564 15.4668 68.0771 17.0625C67.7432 17.7305 67.2979 18.4355 66.7412 19.1777C66.2217 19.8828 65.5723 20.5693 64.793 21.2373C64.0137 21.9053 63.0859 22.5361 62.0098 23.1299C60.9707 23.7236 59.7461 24.2432 58.3359 24.6885C59.709 25.0967 60.8408 25.5791 61.7314 26.1357C62.6592 26.6924 63.4014 27.2119 63.958 27.6943C64.626 28.2881 65.127 28.8633 65.4609 29.4199C65.8691 30.1992 66.1475 30.8672 66.2959 31.4238C66.4443 31.9805 66.5371 32.5186 66.5742 33.0381C66.6484 33.5205 66.7412 34.0215 66.8525 34.541C66.9639 35.0605 67.2051 35.6543 67.5762 36.3223C67.873 36.8418 68.2256 37.3799 68.6338 37.9365C69.0049 38.4189 69.4316 38.9385 69.9141 39.4951C70.4336 40.0518 71.0645 40.5898 71.8066 41.1094C70.7676 41.1465 69.8027 41.165 68.9121 41.165C68.0586 41.165 67.3164 41.165 66.6855 41.165C65.9434 41.165 65.2383 41.1465 64.5703 41.1094C63.9023 41.0723 63.0674 41.0537 62.0654 41.0537C61.2119 41.0537 60.1172 41.0537 58.7812 41.0537C57.4824 41.0537 55.9053 41.0723 54.0498 41.1094C54.8662 40.4785 55.5342 39.8477 56.0537 39.2168C56.5732 38.5859 56.9814 38.0107 57.2783 37.4912C57.6123 36.8975 57.8535 36.3223 58.002 35.7656C58.1875 34.7637 58.2061 33.7246 58.0576 32.6484C57.9463 31.7207 57.6494 30.7002 57.167 29.5869C56.6846 28.4365 55.9053 27.2861 54.8291 26.1357C53.7529 26.3213 52.8438 26.4697 52.1016 26.5811C51.3965 26.6553 50.7842 26.7295 50.2646 26.8037C49.6709 26.8779 49.1885 26.9336 48.8174 26.9707C48.4834 27.0078 48.1123 27.0449 47.7041 27.082C47.3701 27.1191 46.999 27.1748 46.5908 27.249C46.2197 27.2861 45.8672 27.3418 45.5332 27.416C45.459 29.0117 45.459 30.4033 45.5332 31.5908C45.6074 32.7412 45.7002 33.7061 45.8115 34.4854C45.96 35.4131 46.127 36.2109 46.3125 36.8789C46.498 37.5469 46.7578 38.1963 47.0918 38.8271C47.3516 39.3467 47.6855 39.9033 48.0938 40.4971C48.502 41.0537 48.9658 41.5176 49.4854 41.8887C48.5205 41.8887 47.5928 41.8887 46.7021 41.8887C45.8486 41.8887 45.0693 41.8701 44.3643 41.833C43.5479 41.833 42.7686 41.8145 42.0264 41.7773C41.2842 41.7402 40.4492 41.7217 39.5215 41.7217C38.7422 41.7217 37.8145 41.7217 36.7383 41.7217C35.6992 41.7217 34.5674 41.7402 33.3428 41.7773C34.3076 40.7754 35.0684 39.9219 35.625 39.2168C36.1816 38.5117 36.6084 37.918 36.9053 37.4355C37.2393 36.916 37.4434 36.4707 37.5176 36.0996C37.5918 35.5059 37.6475 34.4482 37.6846 32.9268C37.7588 31.3682 37.8145 29.5869 37.8516 27.583C37.8887 25.5791 37.9072 23.4824 37.9072 21.293C37.9072 19.1035 37.8887 17.0625 37.8516 15.1699C37.8145 13.2402 37.7773 11.5889 37.7402 10.2158C37.7031 8.84277 37.666 7.9707 37.6289 7.59961C37.5176 6.93164 37.2764 6.26367 36.9053 5.5957C36.6084 5.00195 36.1816 4.33398 35.625 3.5918C35.0684 2.84961 34.3076 2.10742 33.3428 1.36523ZM54.3838 20.959C54.7549 20.7363 55.0703 20.5137 55.3301 20.291C55.5898 20.0684 55.8125 19.7158 55.998 19.2334C56.1836 18.7139 56.332 17.9902 56.4434 17.0625C56.5918 16.1348 56.7588 14.873 56.9443 13.2773C57.0928 11.6816 56.9814 10.3643 56.6104 9.3252C56.2764 8.28613 55.8125 7.46973 55.2188 6.87598C54.6621 6.24512 54.0312 5.81836 53.3262 5.5957C52.6582 5.33594 52.0645 5.20605 51.5449 5.20605C50.5059 5.20605 49.4854 5.52148 48.4834 6.15234C47.4814 6.7832 46.7207 7.63672 46.2012 8.71289C46.0156 9.19531 45.8486 9.99316 45.7002 11.1064C45.5889 12.0713 45.5146 13.4072 45.4775 15.1143C45.4404 16.8213 45.4961 19.0664 45.6445 21.8496C47.0547 22.0723 48.2979 22.165 49.374 22.1279C50.4502 22.0537 51.3594 21.9238 52.1016 21.7383C52.9922 21.5527 53.7529 21.293 54.3838 20.959ZM71.8066 1.64355C72.8828 1.8291 73.8291 1.95898 74.6455 2.0332C75.499 2.10742 76.2041 2.16309 76.7607 2.2002C77.4287 2.2373 78.0039 2.25586 78.4863 2.25586C78.9688 2.25586 79.6553 2.21875 80.5459 2.14453C81.2881 2.07031 82.2529 1.97754 83.4404 1.86621C84.665 1.75488 86.168 1.56934 87.9492 1.30957C87.4297 1.45801 86.9473 1.88477 86.502 2.58984C86.0938 3.25781 85.7227 3.98145 85.3887 4.76074C84.9805 5.68848 84.6279 6.70898 84.3311 7.82227C84.0713 8.82422 83.7373 10.1973 83.3291 11.9414C82.958 13.6855 82.5869 15.5781 82.2158 17.6191C81.8818 19.6602 81.6221 21.7383 81.4365 23.8535C81.251 25.9316 81.2139 27.8428 81.3252 29.5869C81.4736 31.3311 81.8262 32.7783 82.3828 33.9287C82.9395 35.042 83.793 35.6357 84.9434 35.71C86.6875 35.8584 88.1348 35.877 89.2852 35.7656C90.4727 35.6172 91.4375 35.4131 92.1797 35.1533C92.9219 34.8936 93.4971 34.5967 93.9053 34.2627C94.3135 33.8916 94.6289 33.5391 94.8516 33.2051C95.4453 32.3516 96.0576 31.2568 96.6885 29.9209C97.3193 28.585 97.876 27.3047 98.3584 26.0801C98.8779 24.8555 99.3047 23.8164 99.6387 22.9629C99.9727 22.1094 100.14 21.7012 100.14 21.7383C100.14 21.8125 100.121 22.2393 100.084 23.0186C100.084 23.7607 100.065 24.6699 100.028 25.7461C100.028 26.7852 100.01 27.8799 99.9727 29.0303C99.9727 30.1807 99.9541 31.1641 99.917 31.9805C99.8799 32.6484 99.8428 33.3906 99.8057 34.207C99.7686 34.9121 99.7314 35.7471 99.6943 36.7119C99.6943 37.6768 99.6572 38.7344 99.583 39.8848C98.0244 39.7734 96.54 39.6992 95.1299 39.6621C93.7197 39.625 92.4766 39.6064 91.4004 39.6064C90.1387 39.6064 88.9697 39.625 87.8936 39.6621C86.7432 39.6992 85.4072 39.7549 83.8857 39.8291C82.5869 39.9033 80.9727 39.9961 79.043 40.1074C77.1133 40.1816 74.8867 40.293 72.3633 40.4414C72.6602 39.9219 72.9014 39.4395 73.0869 38.9941C73.3096 38.5488 73.4766 38.1777 73.5879 37.8809C73.7363 37.5098 73.8291 37.1943 73.8662 36.9346C74.0889 35.7471 74.2744 34.2441 74.4229 32.4258C74.5713 30.5703 74.6826 28.6035 74.7568 26.5254C74.8682 24.4473 74.9238 22.332 74.9238 20.1797C74.9609 17.9902 74.9609 15.9678 74.9238 14.1123C74.8867 12.2568 74.8125 10.6426 74.7012 9.26953C74.627 7.89648 74.5156 6.9502 74.3672 6.43066C74.1816 5.83691 73.959 5.24316 73.6992 4.64941C73.4766 4.12988 73.1982 3.61035 72.8643 3.09082C72.5674 2.53418 72.2148 2.05176 71.8066 1.64355ZM136.21 1.25391C135.69 2.44141 135.227 3.48047 134.818 4.37109C134.41 5.26172 134.058 6.02246 133.761 6.65332C133.427 7.3584 133.148 7.98926 132.926 8.5459C132.74 8.9541 132.499 9.51074 132.202 10.2158C131.905 10.8467 131.534 11.6816 131.089 12.7207C130.681 13.7227 130.143 15.0215 129.475 16.6172C129.141 15.2441 128.732 14.0381 128.25 12.999C127.768 11.96 127.248 11.0508 126.691 10.2715C126.135 9.49219 125.541 8.86133 124.91 8.37891C124.316 7.85937 123.723 7.43262 123.129 7.09863C121.756 6.35645 120.309 5.94824 118.787 5.87402C116.783 5.98535 115.206 6.31934 114.056 6.87598C112.942 7.39551 112.126 8.00781 111.606 8.71289C111.087 9.38086 110.809 10.0859 110.771 10.8281C110.734 11.5332 110.827 12.127 111.05 12.6094C111.235 13.0547 111.885 13.5742 112.998 14.168C114.148 14.7617 115.521 15.4482 117.117 16.2275C118.75 16.9697 120.494 17.8232 122.35 18.7881C124.205 19.7158 125.912 20.7549 127.471 21.9053C129.066 23.0186 130.402 24.2432 131.479 25.5791C132.592 26.8779 133.204 28.2695 133.315 29.7539C133.427 31.6465 133.408 33.3535 133.26 34.875C133.111 36.3965 132.592 37.6953 131.701 38.7715C130.811 39.8477 129.419 40.7012 127.526 41.332C125.671 41.9629 123.092 42.3525 119.789 42.501C116.375 42.6494 113.573 42.4639 111.384 41.9443C109.194 41.4248 107.413 40.7197 106.04 39.8291C104.704 38.9385 103.702 37.9551 103.034 36.8789C102.403 35.8027 101.939 34.7822 101.643 33.8174C101.346 32.8154 101.142 31.9619 101.03 31.2568C100.919 30.5146 100.733 30.0693 100.474 29.9209C100.177 29.7354 99.8799 29.5684 99.583 29.4199C99.3232 29.2715 99.0449 29.1416 98.748 29.0303C98.4512 28.8818 98.1543 28.752 97.8574 28.6406L114.056 26.0244C113.128 26.7666 112.404 27.4531 111.885 28.084C111.402 28.7148 111.031 29.2715 110.771 29.7539C110.475 30.3105 110.271 30.8301 110.159 31.3125C110.085 31.832 110.252 32.4814 110.66 33.2607C111.068 34.04 111.625 34.8008 112.33 35.543C113.072 36.248 113.926 36.8418 114.891 37.3242C115.855 37.8066 116.857 38.0107 117.896 37.9365C119.195 37.8252 120.253 37.5098 121.069 36.9902C121.886 36.4336 122.498 35.7471 122.906 34.9307C123.352 34.1143 123.611 33.2236 123.686 32.2588C123.76 31.2939 123.667 30.3477 123.407 29.4199C123.185 28.4551 122.813 27.5645 122.294 26.748C121.774 25.8945 121.162 25.1895 120.457 24.6328C119.826 24.1875 118.843 23.7607 117.507 23.3525C116.208 22.9443 114.742 22.499 113.109 22.0166C111.514 21.5342 109.862 20.9775 108.155 20.3467C106.485 19.7158 104.964 18.9365 103.591 18.0088C102.255 17.0811 101.179 15.9863 100.362 14.7246C99.583 13.4629 99.2861 11.9414 99.4717 10.1602C99.6201 8.63867 100.103 7.37695 100.919 6.375C101.772 5.33594 102.83 4.51953 104.092 3.92578C105.391 3.29492 106.819 2.83105 108.378 2.53418C109.974 2.2373 111.588 2.07031 113.221 2.0332C114.891 1.95898 116.523 1.97754 118.119 2.08887C119.752 2.2002 121.218 2.33008 122.517 2.47852C123.815 2.62695 124.91 2.77539 125.801 2.92383C126.729 3.03516 127.304 3.10938 127.526 3.14648C128.491 3.2207 129.456 3.20215 130.421 3.09082C131.274 3.0166 132.202 2.84961 133.204 2.58984C134.243 2.29297 135.245 1.84766 136.21 1.25391Z" fill="#2245C2"/>
</svg>
